<svg viewBox="0 0 210 32" fill="none" xmlns="http://www.w3.org/2000/svg"><path d="M13.5 31.34c-4.38 0-7.74-1.2-10.02-3.67C1.2 25.2.03 21.74.03 17.25 0 15.2.36 13.2 1.08 11.26c.63-1.69 1.62-3.2 2.88-4.46A12.07 12.07 0 0 1 8.3 4.03a15.6 15.6 0 0 1 5.49-.93c1.05 0 2.1.1 3.12.24.84.15 1.65.36 2.46.6a12.31 12.31 0 0 1 2.76 1.24l-1.74 4.9a14.87 14.87 0 0 0-6.66-1.59c-.93 0-1.9.15-2.76.48-.9.3-1.71.81-2.37 1.5a7.29 7.29 0 0 0-1.65 2.69 11.15 11.15 0 0 0-.63 3.97c0 1.18.15 2.35.42 3.5a7.51 7.51 0 0 0 1.32 2.8 6.34 6.34 0 0 0 2.4 1.86c1.14.48 2.34.7 3.57.66.78 0 1.59-.06 2.37-.15.72-.09 1.35-.24 1.89-.36.5-.12.99-.3 1.44-.51l1.1-.48 1.69 4.87a14.44 14.44 0 0 1-3.63 1.42c-1.77.42-3.57.63-5.4.6ZM34.14 9.7c1.44 0 2.88.27 4.26.72 1.02.36 1.92.99 2.67 1.77a6.3 6.3 0 0 1 1.38 2.71c.27 1.15.39 2.32.33 3.5l-.4 12.1-3.47.54c-1.8.18-3.6.24-5.4.18-1.2 0-2.4-.18-3.57-.45a8.45 8.45 0 0 1-2.76-1.23 5.73 5.73 0 0 1-1.71-2.17 7.32 7.32 0 0 1-.54-3.2c.03-1.05.3-2.1.84-3a5.3 5.3 0 0 1 1.98-1.93c.87-.51 1.8-.84 2.79-1 1.08-.18 2.16-.27 3.24-.2.66 0 1.35.05 2 .14.49.06.97.16 1.42.3v-.54a3.26 3.26 0 0 0-.84-2.4c-.57-.64-1.6-.97-3.1-1-.95-.06-1.94 0-2.9.12-.87.06-1.71.24-2.52.51l-.54-4.7c.33-.08.75-.2 1.26-.3l1.65-.27 1.92-.15c.66-.06 1.32-.06 2-.06Zm-.1 17.04h1.66c.42 0 .8-.04 1.23-.1l.15-4.4-1.05-.2-1.3-.12-1.52.06c-.45.03-.87.15-1.3.33-.35.15-.62.42-.86.72a2.2 2.2 0 0 0-.33 1.15c-.03.93.24 1.56.84 1.92.6.36 1.44.57 2.49.63ZM60.3 15.41c-.51-.15-1.14-.27-1.83-.42-.75-.15-1.5-.2-2.25-.2l-1.32.08c-.4.06-.75.12-1.14.21V30.8h-5.8V11.35c1.2-.42 2.44-.78 3.67-1.05 1.56-.33 3.15-.49 4.74-.49l1.14.06 1.32.16 1.32.24c.39.09.75.18 1.1.33l-.95 4.81Z" fill="#2DAB66"/><path d="M72.87 3.4c4.02 0 7.1.72 9.26 2.14 2.16 1.41 3.24 3.76 3.24 6.98 0 3.23-1.08 5.6-3.27 7.05-2.18 1.44-5.3 2.17-9.35 2.17h-1.9v9.06h-6.08V4.12a49.41 49.41 0 0 1 8.1-.72Zm.39 5.21h-1.3l-1.1.1v7.82h1.89c2.1 0 3.69-.27 4.77-.84 1.08-.58 1.59-1.66 1.59-3.23.03-.66-.12-1.3-.42-1.86-.27-.48-.7-.9-1.17-1.18a5.1 5.1 0 0 0-1.83-.63 16.5 16.5 0 0 0-2.43-.18ZM101.78 15.41c-.5-.15-1.1-.27-1.83-.42-.75-.15-1.5-.2-2.25-.2l-1.29.08c-.39.06-.78.12-1.17.21V30.8h-5.79V11.35c1.05-.36 2.28-.72 3.7-1.05 1.55-.33 3.11-.49 4.7-.49l1.14.06 1.32.16 1.32.24c.4.09.78.18 1.14.33l-.99 4.81ZM112.22 4.3c0 1.09-.33 1.93-1.02 2.53a3.72 3.72 0 0 1-4.86 0 3.1 3.1 0 0 1-1.05-2.52 3.35 3.35 0 0 1 1.05-2.53 3.72 3.72 0 0 1 4.86 0 3.22 3.22 0 0 1 1.02 2.53Zm-.54 26.5h-5.79V10.24h5.8V30.8ZM116.15 20.53c0-1.44.24-2.86.72-4.21a9.89 9.89 0 0 1 5.4-5.75c1.41-.6 2.91-.9 4.44-.88a14.29 14.29 0 0 1 5.64 1.15l-1.2 4.63a10.55 10.55 0 0 0-3.96-.78c-1.7 0-3 .54-3.84 1.63a6.65 6.65 0 0 0-1.26 4.21c0 1.75.4 3.28 1.17 4.3.78 1.03 2.2 1.51 4.14 1.51.75 0 1.53-.06 2.28-.18.75-.15 1.5-.36 2.22-.63l.81 4.76c-.8.33-1.65.57-2.52.75-1.1.21-2.22.3-3.36.3-1.65.03-3.3-.24-4.83-.84a9.43 9.43 0 0 1-3.33-2.29 9.33 9.33 0 0 1-1.92-3.4c-.39-1.39-.6-2.83-.6-4.28ZM134.66 20.68a12.5 12.5 0 0 1 .84-4.78 10.64 10.64 0 0 1 2.2-3.44c.9-.9 1.97-1.6 3.14-2.04a9.3 9.3 0 0 1 3.63-.73c2.91 0 5.2.9 6.9 2.68 1.71 1.78 2.52 4.43 2.52 7.9 0 .32-.03.68-.03 1.1 0 .43-.06.76-.09 1.06H140.6c.12 1.14.72 2.2 1.68 2.86 1 .7 2.31 1.05 4 1.05a15.44 15.44 0 0 0 5.63-1.02l.78 4.76a16.33 16.33 0 0 1-3 .87c-.66.12-1.35.21-2.04.27-.72.1-1.44.12-2.16.12-1.65.03-3.27-.24-4.83-.81a8.92 8.92 0 0 1-5.37-5.63c-.42-1.36-.63-2.8-.63-4.22Zm13.62-2.22a8.08 8.08 0 0 0-.24-1.45 5.08 5.08 0 0 0-.66-1.26 3.3 3.3 0 0 0-1.14-.88 3.38 3.38 0 0 0-1.7-.36c-.58 0-1.15.1-1.66.33a3 3 0 0 0-1.17.88 3.3 3.3 0 0 0-.72 1.26c-.18.48-.3.96-.39 1.48h7.68Z" fill="#000"/><path d="M202.97 21.23c-2.22 1.14-4.8.9-5.28-.28-.48-1.17 1.14-2.13 2.37-3.37 1.23-1.23 3.09-1.83 4.44-.72 1.35 1.11 1.26 2.92-1.53 4.37Zm-8.28 3.3c-1.05 1.12-2.1 1.1-4.23 1.12-1.02.03-9.24 0-10.3-.03-2.03-.09-3.14-.09-4.2-1.17-1.04-1.09-.2-1.99 1.3-1.99l16.17.09c1.5.03 2.3.9 1.26 1.99Zm-21.75-3.58c-.45 1.18-3.06 1.42-5.25.28-2.82-1.45-2.7-3.44-1.56-4.37 1.14-.93 3.24-.45 4.44.72 1.2 1.18 2.79 2.3 2.37 3.37Zm1.77-15.11c2.13-1.26 5.37-1.75 10.7-1.75 5.35 0 9.37.67 11.62 2.05a7.92 7.92 0 0 1 3.6 6.35c-2.46.85-25.5.9-30.21 0 .84-2.83 1.95-5.26 4.29-6.65Zm34.8 13.97a14.15 14.15 0 0 0-2.04-4.97 10.2 10.2 0 0 0-1.35-1.65c1.56-.18 1.92-1.42 2-2.41.1-1-1.37-1.06-2.42-1-.84.03-1.62.37-2.22.94-.57-2.41-1.71-5.18-4.68-6.99a15.33 15.33 0 0 0-4.98-1.86c-.93-.18-1.95-.33-3.1-.46a60.42 60.42 0 0 0-5.3-.2c-1.98 0-3.54.05-5.04.2-1.02.1-2.01.28-3 .49-1.6.3-3.12.87-4.5 1.68-2.52 1.54-3.78 4.34-4.95 6.87-.54-.4-1.2-.64-1.86-.67-1.08-.06-2.43 0-2.46 1-.03 1-.06 2.05 1.32 2.35a18 18 0 0 0-1.35 1.65 10.67 10.67 0 0 0-1.98 5.24 6.54 6.54 0 0 0 1.74 5c.06 1.8.09 4.12.12 5 .09 1.6.93 1.56 3.9 1.5 1.86-.03 3.99.42 4.02-1.83.03-.55 0-1.12-.03-1.66 7.98 1.41 20.67 1.63 28.7.12-.02.42-.02.9-.02 1.54.06 2.25 2.16 1.8 4.05 1.83 2.94.06 3.8.1 3.87-1.5.03-.85.06-3.1.12-4.91a6.52 6.52 0 0 0 1.44-5.3Z" fill="#2DAB66"/></svg>